<svg width="305" height="197" viewBox="0 0 305 197" fill="none" xmlns="http://www.w3.org/2000/svg">
<path d="M271.781 87.6562H206.719C203.843 87.6562 201.085 86.5138 199.051 84.4802C197.017 82.4466 195.875 79.6884 195.875 76.8125V44.2812C195.875 32.7775 200.445 21.7449 208.579 13.6105C216.714 5.4761 227.746 0.90625 239.25 0.90625C250.754 0.90625 261.786 5.4761 269.921 13.6105C278.055 21.7449 282.625 32.7775 282.625 44.2812V76.8125C282.625 79.6884 281.483 82.4466 279.449 84.4802C277.415 86.5138 274.657 87.6562 271.781 87.6562ZM217.562 65.9688H260.938V44.2812C260.938 38.5294 258.653 33.0131 254.585 28.9459C250.518 24.8787 245.002 22.5938 239.25 22.5938C233.498 22.5938 227.982 24.8787 223.915 28.9459C219.847 33.0131 217.562 38.5294 217.562 44.2812V65.9688Z" fill="white"/>
<path d="M206.719 174.406C203.843 174.406 201.085 173.264 199.051 171.23C197.017 169.197 195.875 166.438 195.875 163.562V109.344C195.875 106.468 194.733 103.71 192.699 101.676C190.665 99.6425 187.907 98.5 185.031 98.5H33.2188C24.5909 98.5 16.3165 101.927 10.2157 108.028C4.11489 114.129 0.6875 122.403 0.6875 131.031V163.562C0.6875 172.19 4.11489 180.465 10.2157 186.566C16.3165 192.666 24.5909 196.094 33.2188 196.094H206.719C209.595 196.094 212.353 194.951 214.386 192.918C216.42 190.884 217.562 188.126 217.562 185.25C217.562 182.374 216.42 179.616 214.386 177.582C212.353 175.549 209.595 174.406 206.719 174.406Z" fill="white"/>
<path d="M64.1234 132.658C63.6367 132.139 63.0487 131.726 62.396 131.443C61.7432 131.161 61.0394 131.015 60.3281 131.015C59.6168 131.015 58.9131 131.161 58.2603 131.443C57.6075 131.726 57.0196 132.139 56.5328 132.658L49.4844 139.598L42.4359 132.658C41.4294 131.651 40.0642 131.086 38.6406 131.086C37.2171 131.086 35.8519 131.651 34.8453 132.658C33.8387 133.664 33.2733 135.03 33.2733 136.453C33.2733 137.877 33.8387 139.242 34.8453 140.248L41.7853 147.297L34.8453 154.345C33.8387 155.352 33.2733 156.717 33.2733 158.141C33.2733 159.564 33.8387 160.929 34.8453 161.936C35.8519 162.943 37.2171 163.508 38.6406 163.508C40.0642 163.508 41.4294 162.943 42.4359 161.936L49.4844 154.996L56.5328 161.936C57.0312 162.434 57.6229 162.83 58.2741 163.099C58.9253 163.369 59.6233 163.508 60.3281 163.508C61.033 163.508 61.7309 163.369 62.3821 163.099C63.0333 162.83 63.625 162.434 64.1234 161.936C64.6219 161.438 65.0172 160.846 65.2869 160.195C65.5567 159.543 65.6955 158.845 65.6955 158.141C65.6955 157.436 65.5567 156.738 65.2869 156.087C65.0172 155.435 64.6219 154.844 64.1234 154.345L57.1834 147.297L64.1234 140.248C64.6421 139.762 65.0555 139.174 65.3381 138.521C65.6207 137.868 65.7665 137.164 65.7665 136.453C65.7665 135.742 65.6207 135.038 65.3381 134.385C65.0555 133.732 64.6421 133.145 64.1234 132.658Z" fill="#5FCB69"/>
<path d="M107.498 132.658C107.012 132.139 106.424 131.726 105.771 131.443C105.118 131.161 104.414 131.015 103.703 131.015C102.992 131.015 102.288 131.161 101.635 131.443C100.983 131.726 100.395 132.139 99.9078 132.658L92.8594 139.598L85.811 132.658C85.3125 132.159 84.7209 131.764 84.0697 131.494C83.4184 131.225 82.7205 131.086 82.0156 131.086C81.3108 131.086 80.6128 131.225 79.9616 131.494C79.3104 131.764 78.7187 132.159 78.2203 132.658C77.7219 133.156 77.3266 133.748 77.0568 134.399C76.7871 135.05 76.6483 135.748 76.6483 136.453C76.6483 137.158 76.7871 137.856 77.0568 138.507C77.3266 139.158 77.7219 139.75 78.2203 140.248L85.1603 147.297L78.2203 154.345C77.2137 155.352 76.6483 156.717 76.6483 158.141C76.6483 159.564 77.2137 160.929 78.2203 161.936C79.2269 162.943 80.5921 163.508 82.0156 163.508C83.4392 163.508 84.8044 162.943 85.811 161.936L92.8594 154.996L99.9078 161.936C100.406 162.434 100.998 162.83 101.649 163.099C102.3 163.369 102.998 163.508 103.703 163.508C104.408 163.508 105.106 163.369 105.757 163.099C106.408 162.83 107 162.434 107.498 161.936C107.997 161.438 108.392 160.846 108.662 160.195C108.932 159.543 109.071 158.845 109.071 158.141C109.071 157.436 108.932 156.738 108.662 156.087C108.392 155.435 107.997 154.844 107.498 154.345L100.558 147.297L107.498 140.248C108.017 139.762 108.431 139.174 108.713 138.521C108.996 137.868 109.141 137.164 109.141 136.453C109.141 135.742 108.996 135.038 108.713 134.385C108.431 133.732 108.017 133.145 107.498 132.658Z" fill="#5FCB69"/>
<path d="M143.933 147.297L150.873 140.248C151.88 139.242 152.446 137.877 152.446 136.453C152.446 135.03 151.88 133.664 150.873 132.658C149.867 131.651 148.502 131.086 147.078 131.086C145.655 131.086 144.289 131.651 143.283 132.658L136.234 139.598L129.186 132.658C128.179 131.651 126.814 131.086 125.391 131.086C123.967 131.086 122.602 131.651 121.595 132.658C120.589 133.664 120.023 135.03 120.023 136.453C120.023 137.877 120.589 139.242 121.595 140.248L128.535 147.297L121.595 154.345C120.589 155.352 120.023 156.717 120.023 158.141C120.023 159.564 120.589 160.929 121.595 161.936C122.602 162.942 123.967 163.508 125.391 163.508C126.814 163.508 128.179 162.942 129.186 161.936L136.234 154.996L143.283 161.936C143.781 162.434 144.373 162.83 145.024 163.099C145.675 163.369 146.373 163.508 147.078 163.508C147.783 163.508 148.481 163.369 149.132 163.099C149.783 162.83 150.375 162.434 150.873 161.936C151.372 161.437 151.767 160.846 152.037 160.195C152.307 159.543 152.446 158.845 152.446 158.141C152.446 157.436 152.307 156.738 152.037 156.087C151.767 155.435 151.372 154.844 150.873 154.345L143.933 147.297Z" fill="#5FCB69"/>
<path d="M271.781 65.9688H206.719C188.752 65.9688 174.188 80.5335 174.188 98.5V163.562C174.188 181.529 188.752 196.094 206.719 196.094H271.781C289.748 196.094 304.312 181.529 304.312 163.562V98.5C304.312 80.5335 289.748 65.9688 271.781 65.9688Z" fill="#E7E2E2"/>
<path d="M260.938 120.187C260.96 116.375 259.978 112.624 258.089 109.312C256.2 106.001 253.472 103.245 250.179 101.324C246.886 99.4031 243.145 98.384 239.332 98.3697C235.52 98.3553 231.771 99.3462 228.463 101.242C225.156 103.139 222.407 105.873 220.493 109.171C218.579 112.468 217.569 116.212 217.563 120.024C217.557 123.837 218.556 127.583 220.46 130.886C222.364 134.189 225.105 136.932 228.406 138.839V152.719C228.406 155.595 229.549 158.353 231.582 160.386C233.616 162.42 236.374 163.562 239.25 163.562C242.126 163.562 244.884 162.42 246.918 160.386C248.951 158.353 250.094 155.595 250.094 152.719V138.839C253.372 136.946 256.097 134.229 257.999 130.957C259.902 127.685 260.915 123.972 260.938 120.187Z" fill="#5FCB69"/>
</svg>
