<svg width="139" height="50" viewBox="0 0 139 50" fill="none" xmlns="http://www.w3.org/2000/svg">
<path d="M35.8906 49.3476H33.7573L30.3195 44.583C29.4794 45.3458 28.5838 46.0532 27.6445 46.7057C26.7047 47.3688 25.7212 47.944 24.6817 48.419C23.6427 48.9057 22.5814 49.2922 21.4982 49.5688C20.4038 49.8561 19.2982 50.0001 18.1707 50.0001C15.7389 50.0001 13.4392 49.5357 11.2947 48.6183C9.13893 47.7009 7.27102 46.4295 5.65689 44.7935C4.05395 43.1682 2.78258 41.2337 1.85397 39.0007C0.925364 36.7676 0.46106 34.3357 0.46106 31.6933C0.46106 29.0845 0.925364 26.6526 1.85397 24.4084C2.78258 22.1642 4.05395 20.2185 5.65689 18.5824C7.27102 16.9353 9.13893 15.6532 11.2947 14.7246C13.4392 13.796 15.7389 13.3317 18.1707 13.3317C18.9554 13.3317 19.7518 13.3978 20.5915 13.5305C21.4204 13.6521 22.2275 13.8733 23.0126 14.1606C23.8085 14.448 24.549 14.835 25.2345 15.3104C25.9307 15.7859 26.5059 16.3718 26.9814 17.0573V0.862549H35.8911V49.3481L35.8906 49.3476ZM26.9809 31.6933C26.9809 30.4886 26.7485 29.3169 26.2842 28.1782C25.8199 27.0508 25.1898 26.0444 24.3939 25.1712C23.598 24.298 22.6582 23.5901 21.5862 23.0709C20.5248 22.5405 19.3862 22.275 18.1703 22.275C16.9655 22.275 15.8269 22.485 14.7543 22.9163C13.693 23.3475 12.7644 23.9776 11.9685 24.7847C11.1838 25.5917 10.5644 26.5753 10.1113 27.747C9.65818 28.908 9.42578 30.2343 9.42578 31.6933C9.42578 32.9754 9.65818 34.1806 10.1113 35.3193C10.5644 36.4691 11.1838 37.475 11.9685 38.337C12.7644 39.199 13.693 39.8845 14.7543 40.3712C15.8264 40.8686 16.9655 41.1228 18.1703 41.1228C19.3862 41.1228 20.5248 40.8574 21.5862 40.327C22.6587 39.7965 23.598 39.0998 24.3939 38.2267C25.1898 37.3535 25.8199 36.3476 26.2842 35.2089C26.7485 34.0815 26.9809 32.9098 26.9809 31.6933ZM70.1126 31.6933C70.1126 34.291 69.6483 36.701 68.7196 38.9341C67.791 41.1671 66.5308 43.1016 64.9279 44.7269C63.3361 46.3629 61.4566 47.6455 59.312 48.5848C57.1675 49.5246 54.8571 49.9996 52.3917 49.9996C49.9598 49.9996 47.6602 49.5241 45.5156 48.5848C43.3599 47.645 41.492 46.3629 39.8778 44.7269C38.2749 43.1021 37.0035 41.1676 36.0749 38.9341C35.1463 36.701 34.682 34.291 34.682 31.6933C34.682 29.0621 35.1463 26.6195 36.0749 24.3753C37.0035 22.1311 38.2749 20.1966 39.8778 18.5606C41.492 16.9353 43.3599 15.6532 45.5156 14.7246C47.6602 13.796 49.9598 13.3317 52.3917 13.3317C54.8566 13.3317 57.1675 13.7736 59.312 14.6473C61.4566 15.5205 63.3357 16.7588 64.9279 18.3729C66.5308 19.9758 67.791 21.9104 68.7196 24.1658C69.6483 26.4207 70.1126 28.9304 70.1126 31.6938V31.6933ZM61.2028 31.6933C61.2028 30.2674 60.9704 28.9848 60.5061 27.8243C60.0418 26.6745 59.4117 25.6797 58.6158 24.8508C57.8199 24.0107 56.8801 23.3806 55.8081 22.9386C54.7468 22.4962 53.6081 22.2755 52.3922 22.2755C51.1874 22.2755 50.0488 22.4967 48.9763 22.9386C47.9149 23.3806 46.9863 24.0107 46.1904 24.8508C45.4057 25.6797 44.7863 26.675 44.3332 27.8243C43.8801 28.9853 43.6477 30.2674 43.6477 31.6933C43.6477 33.0308 43.8801 34.2803 44.3332 35.419C44.7863 36.5688 45.4057 37.5635 46.1904 38.4036C46.9863 39.2438 47.9149 39.9069 48.9763 40.3936C50.0483 40.8802 51.1874 41.1233 52.3922 41.1233C53.6081 41.1233 54.7468 40.8909 55.8081 40.4378C56.8806 39.9847 57.8199 39.3546 58.6158 38.5257C59.4117 37.7074 60.0418 36.7127 60.5061 35.5522C60.9704 34.3805 61.2028 33.0979 61.2028 31.6943V31.6933ZM82.7674 40.8574C83.1102 40.9682 83.4529 41.0455 83.8064 41.0674C84.1491 41.1005 84.4919 41.1228 84.8342 41.1228C85.6967 41.1228 86.5368 41.0013 87.3327 40.7689C88.1285 40.5258 88.8802 40.1831 89.5769 39.7411C90.2843 39.2987 90.9144 38.7571 91.456 38.127C92.0088 37.4857 92.4619 36.7783 92.8046 36.0043L99.2825 42.5153C98.4643 43.6763 97.5138 44.7264 96.4525 45.655C95.38 46.5836 94.2194 47.3683 92.9811 48.0208C91.7428 48.6621 90.4384 49.1594 89.0678 49.491C87.6973 49.8226 86.282 49.9996 84.8337 49.9996C82.4018 49.9996 80.1021 49.5464 77.9576 48.6397C75.8019 47.7335 73.9228 46.4621 72.3198 44.848C70.7057 43.2227 69.4455 41.2993 68.5169 39.0663C67.5883 36.8333 67.124 34.379 67.124 31.6928C67.124 28.9513 67.5883 26.4528 68.5169 24.1867C69.4455 21.9206 70.7057 19.9861 72.3198 18.3831C73.9228 16.7913 75.8019 15.5423 77.9576 14.6575C80.1021 13.7731 82.4013 13.3312 84.8337 13.3312C86.282 13.3312 87.6968 13.5082 89.0785 13.8509C90.4603 14.1937 91.7759 14.691 93.0142 15.3435C94.2525 15.9848 95.413 16.7807 96.4962 17.72C97.5794 18.6597 98.5304 19.7099 99.3482 20.8816L82.7664 40.8574H82.7674ZM87.2996 22.6285C86.8907 22.4739 86.4814 22.3854 86.0837 22.3411C85.6855 22.2969 85.2659 22.275 84.8347 22.275C83.6299 22.275 82.4913 22.4962 81.4187 22.9382C80.3574 23.3801 79.4288 24.0102 78.6329 24.8284C77.8482 25.6462 77.2288 26.6414 76.7757 27.7907C76.3226 28.9517 76.0902 30.245 76.0902 31.6928C76.0902 32.0244 76.1125 32.3895 76.1456 32.7984C76.1787 33.2073 76.2229 33.6274 76.3007 34.0474C76.378 34.4675 76.4665 34.8652 76.5768 35.2634C76.6872 35.6504 76.8311 35.9931 76.9969 36.2912L87.3001 22.628L87.2996 22.6285Z" fill="#5FCB69"/>
<path d="M111.692 5.89205C111.692 6.70981 111.537 7.47263 111.228 8.1912C110.907 8.8986 110.487 9.51751 109.945 10.0484C109.404 10.5788 108.774 10.9989 108.044 11.3086C107.325 11.629 106.551 11.7841 105.734 11.7841C104.916 11.7841 104.142 11.6295 103.423 11.3086C102.694 10.9994 102.064 10.5788 101.544 10.0484C101.014 9.51751 100.594 8.8986 100.273 8.1912C99.9637 7.47263 99.8086 6.70981 99.8086 5.89205C99.8086 5.08498 99.9632 4.33335 100.273 3.60359C100.593 2.88501 101.014 2.25491 101.544 1.72449C102.064 1.19406 102.694 0.774003 103.423 0.464304C104.142 0.154606 104.916 0 105.734 0C106.551 0 107.325 0.154606 108.044 0.464304C108.774 0.773517 109.404 1.19406 109.945 1.72449C110.487 2.2554 110.907 2.88549 111.228 3.60359C111.537 4.33335 111.692 5.08498 111.692 5.89205ZM110.166 49.9995H101.267V15.3104H110.166V49.9995ZM131.84 49.9995C129.707 49.9995 127.695 49.5906 125.815 48.7836C123.936 47.9765 122.289 46.8602 120.874 45.4449C119.459 44.0302 118.354 42.383 117.535 40.5146C116.728 38.6355 116.33 36.6236 116.33 34.4898V24.1871H112.019V15.3765H116.33V1.51397H125.141V15.3765H138.539V24.1871H125.141V34.4898C125.141 35.4184 125.306 36.2804 125.649 37.0986C126.003 37.9057 126.478 38.6131 127.075 39.2101C127.683 39.8184 128.391 40.3045 129.22 40.6585C130.038 41.0124 130.911 41.1889 131.84 41.1889H138.539V49.9995H131.84H131.84Z" fill="#4E4E54"/>
</svg>
