<?xml version="1.0" encoding="UTF-8"?>
<!DOCTYPE svg PUBLIC "-//W3C//DTD SVG 1.1//EN" "http://www.w3.org/Graphics/SVG/1.1/DTD/svg11.dtd">
<!-- Creator: CorelDRAW 2021 (64 Bit) -->
<svg xmlns="http://www.w3.org/2000/svg" xml:space="preserve" width="96.4703mm" height="34.933mm" version="1.1" style="shape-rendering:geometricPrecision; text-rendering:geometricPrecision; image-rendering:optimizeQuality; fill-rule:evenodd; clip-rule:evenodd"
viewBox="0 0 2840.05 1028.42"
 xmlns:xlink="http://www.w3.org/1999/xlink"
 xmlns:xodm="http://www.corel.com/coreldraw/odm/2003">
 <defs>
  <style type="text/css">
   <![CDATA[
    .fil0 {fill:#5FCB69;fill-rule:nonzero}
    .fil1 {fill:#73737F;fill-rule:nonzero}
   ]]>
  </style>
 </defs>
 <g id="Camada_x0020_1">
  <metadata id="CorelCorpID_0Corel-Layer"/>
  <g id="_2513025007840">
   <path class="fil0" d="M728.73 1015l-43.88 0 -70.71 -98c-17.28,15.69 -35.7,30.24 -55.02,43.66 -19.33,13.64 -39.56,25.47 -60.94,35.24 -21.37,10.01 -43.2,17.96 -65.48,23.65 -22.51,5.91 -45.25,8.87 -68.44,8.87 -50.02,0 -97.32,-9.55 -141.43,-28.42 -44.34,-18.87 -82.76,-45.02 -115.96,-78.67 -32.97,-33.43 -59.12,-73.22 -78.22,-119.15 -19.1,-45.93 -28.65,-95.95 -28.65,-150.3 0,-53.66 9.55,-103.68 28.65,-149.84 19.1,-46.16 45.25,-86.18 78.22,-119.83 33.2,-33.88 71.62,-60.25 115.96,-79.35 44.11,-19.1 91.41,-28.65 141.43,-28.65 16.14,0 32.52,1.36 49.79,4.09 17.05,2.5 33.65,7.05 49.8,12.96 16.37,5.91 31.6,13.87 45.7,23.65 14.32,9.78 26.15,21.83 35.93,35.93l0 -333.1 183.26 0 0 997.27zm-183.26 -363.12c0,-24.78 -4.78,-48.88 -14.33,-72.3 -9.55,-23.19 -22.51,-43.89 -38.88,-61.85 -16.37,-17.96 -35.7,-32.52 -57.75,-43.2 -21.83,-10.91 -45.25,-16.37 -70.26,-16.37 -24.78,0 -48.2,4.32 -70.26,13.19 -21.83,8.87 -40.93,21.83 -57.3,38.43 -16.14,16.6 -28.88,36.83 -38.2,60.93 -9.32,23.88 -14.1,51.16 -14.1,81.17 0,26.37 4.78,51.16 14.1,74.58 9.32,23.65 22.06,44.34 38.2,62.07 16.37,17.73 35.47,31.83 57.3,41.84 22.05,10.23 45.48,15.46 70.26,15.46 25.01,0 48.43,-5.46 70.26,-16.37 22.06,-10.91 41.38,-25.24 57.75,-43.2 16.37,-17.96 29.33,-38.65 38.88,-62.07 9.55,-23.19 14.33,-47.29 14.33,-72.31zm887.15 0c0,53.43 -9.55,103 -28.65,148.93 -19.1,45.93 -45.02,85.72 -77.99,119.15 -32.74,33.65 -71.4,60.03 -115.51,79.35 -44.11,19.33 -91.63,29.1 -142.34,29.1 -50.02,0 -97.32,-9.78 -141.43,-29.1 -44.34,-19.33 -82.76,-45.7 -115.96,-79.35 -32.97,-33.42 -59.12,-73.21 -78.22,-119.15 -19.1,-45.93 -28.65,-95.5 -28.65,-148.93 0,-54.12 9.55,-104.36 28.65,-150.52 19.1,-46.16 45.25,-85.95 78.22,-119.6 33.2,-33.43 71.62,-59.8 115.96,-78.9 44.11,-19.1 91.41,-28.65 141.43,-28.65 50.7,0 98.23,9.09 142.34,27.06 44.11,17.96 82.76,43.43 115.51,76.63 32.97,32.97 58.89,72.76 77.99,119.15 19.1,46.38 28.65,98 28.65,154.84zm-183.26 0c0,-29.33 -4.78,-55.71 -14.33,-79.58 -9.55,-23.65 -22.51,-44.11 -38.88,-61.16 -16.37,-17.28 -35.7,-30.24 -57.75,-39.33 -21.83,-9.1 -45.25,-13.64 -70.26,-13.64 -24.78,0 -48.2,4.55 -70.26,13.64 -21.83,9.09 -40.93,22.05 -57.3,39.33 -16.14,17.05 -28.88,37.52 -38.2,61.16 -9.32,23.88 -14.1,50.25 -14.1,79.58 0,27.51 4.78,53.21 14.1,76.63 9.32,23.65 22.06,44.11 38.2,61.39 16.37,17.28 35.47,30.92 57.3,40.93 22.05,10.01 45.48,15.01 70.26,15.01 25.01,0 48.43,-4.78 70.26,-14.1 22.06,-9.32 41.38,-22.28 57.75,-39.33 16.37,-16.83 29.33,-37.29 38.88,-61.16 9.55,-24.1 14.33,-50.48 14.33,-79.35zm443.55 188.49c7.05,2.28 14.1,3.87 21.37,4.32 7.05,0.68 14.1,1.14 21.14,1.14 17.74,0 35.02,-2.5 51.39,-7.28 16.37,-5 31.83,-12.05 46.16,-21.14 14.55,-9.1 27.51,-20.24 38.65,-33.2 11.37,-13.19 20.69,-27.74 27.74,-43.66l133.24 133.92c-16.83,23.88 -36.38,45.48 -58.21,64.58 -22.06,19.1 -45.93,35.24 -71.4,48.66 -25.47,13.19 -52.3,23.42 -80.49,30.24 -28.19,6.82 -57.3,10.46 -87.09,10.46 -50.02,0 -97.32,-9.32 -141.43,-27.97 -44.34,-18.64 -82.99,-44.79 -115.96,-77.99 -33.2,-33.43 -59.12,-72.99 -78.22,-118.92 -19.1,-45.93 -28.65,-96.41 -28.65,-151.66 0,-56.39 9.55,-107.78 28.65,-154.39 19.1,-46.61 45.02,-86.4 78.22,-119.37 32.97,-32.74 71.62,-58.43 115.96,-76.63 44.11,-18.19 91.4,-27.28 141.43,-27.28 29.79,0 58.89,3.64 87.31,10.69 28.42,7.05 55.48,17.28 80.95,30.7 25.47,13.19 49.34,29.56 71.62,48.88 22.28,19.33 41.84,40.93 58.66,65.03l-341.06 410.87zm93.22 -374.94c-8.41,-3.18 -16.83,-5 -25.01,-5.91 -8.19,-0.91 -16.82,-1.36 -25.69,-1.36 -24.78,0 -48.2,4.55 -70.26,13.64 -21.83,9.09 -40.93,22.05 -57.3,38.88 -16.14,16.82 -28.88,37.29 -38.2,60.93 -9.32,23.88 -14.1,50.48 -14.1,80.26 0,6.82 0.46,14.33 1.14,22.74 0.68,8.41 1.59,17.05 3.19,25.69 1.59,8.64 3.41,16.82 5.68,25.01 2.27,7.96 5.23,15.01 8.64,21.14l211.92 -281.03z"/>
   <path class="fil1" d="M2287.84 121.19c0,16.82 -3.18,32.51 -9.55,47.29 -6.59,14.55 -15.23,27.28 -26.37,38.2 -11.14,10.91 -24.1,19.55 -39.11,25.92 -14.78,6.59 -30.7,9.78 -47.52,9.78 -16.82,0 -32.74,-3.18 -47.52,-9.78 -15.01,-6.36 -27.97,-15.01 -38.65,-25.92 -10.91,-10.92 -19.55,-23.65 -26.15,-38.2 -6.36,-14.78 -9.55,-30.47 -9.55,-47.29 0,-16.6 3.18,-32.06 9.55,-47.07 6.59,-14.78 15.24,-27.74 26.15,-38.65 10.69,-10.91 23.65,-19.55 38.65,-25.92 14.78,-6.37 30.7,-9.55 47.52,-9.55 16.82,0 32.74,3.18 47.52,9.55 15.01,6.36 27.97,15.01 39.11,25.92 11.14,10.92 19.78,23.88 26.37,38.65 6.37,15.01 9.55,30.47 9.55,47.07zm-31.38 907.22l-183.04 0 0 -713.5 183.04 0 0 713.5zm445.8 0c-43.88,0 -85.27,-8.41 -123.92,-25.01 -38.65,-16.6 -72.53,-39.56 -101.64,-68.67 -29.1,-29.1 -51.84,-62.98 -68.67,-101.41 -16.6,-38.65 -24.79,-80.03 -24.79,-123.92l0 -211.91 -88.68 0 0 -181.22 88.68 0 0 -285.13 181.22 0 0 285.13 275.58 0 0 181.22 -275.58 0 0 211.91c0,19.1 3.41,36.83 10.46,53.66 7.27,16.6 17.05,31.15 29.33,43.43 12.51,12.51 27.06,22.51 44.11,29.79 16.83,7.28 34.79,10.91 53.89,10.91l137.79 0 0 181.22 -137.79 0z"/>
  </g>
 </g>
</svg>
