<svg width="345" height="300" viewBox="0 0 345 300" fill="none" xmlns="http://www.w3.org/2000/svg">
<path d="M134.189 143.778L165.383 143.784C201.109 143.784 230.07 168.968 230.07 200.034L129.431 200.023L129.445 212.534L244.445 212.524V200.034C244.445 186.503 239.871 173.745 231.708 162.524L273.195 162.534C301.835 162.534 326.561 177.099 338.114 198.176C304.12 237.184 249.073 262.534 186.945 262.534C147.252 262.534 113.625 255.151 86.3142 242.224L86.335 125.921C104.24 128.151 120.624 134.479 134.189 143.778ZM57.5701 112.534C64.9421 112.534 71.018 117.359 71.8485 123.576L71.9451 125.022V237.534C71.9451 244.438 65.5092 250.034 57.5701 250.034H28.8201C20.881 250.034 14.4451 244.438 14.4451 237.534V125.034C14.4451 118.13 20.881 112.534 28.8201 112.534H57.5701ZM196.237 44.7258L201.316 49.1479L206.402 44.7258C220.436 32.5219 243.192 32.5219 257.226 44.7258C271.26 56.9296 271.26 76.716 257.226 88.9199L201.32 137.534L145.415 88.9199C131.38 76.716 131.38 56.9296 145.415 44.7258C159.449 32.5219 182.203 32.5219 196.237 44.7258Z" fill="white"/>
<path d="M268.595 27.469L269.801 24.7049C270.876 22.2453 272.808 20.2873 275.22 19.217L278.541 17.7426C279.597 17.2739 279.597 15.7376 278.541 15.2688L275.323 13.8404C272.85 12.7426 270.883 10.7121 269.827 8.16854L268.605 5.223C268.151 4.12993 266.641 4.12993 266.187 5.223L264.965 8.16852C263.909 10.7121 261.941 12.7426 259.468 13.8404L256.25 15.2688C255.194 15.7376 255.194 17.2739 256.25 17.7426L259.572 19.217C261.983 20.2873 263.916 22.2453 264.99 24.7049L266.197 27.469C266.661 28.5313 268.131 28.5313 268.595 27.469ZM280.677 34.1986L281.016 33.4208C281.621 32.034 282.711 30.9297 284.071 30.3256L285.116 29.861C285.682 29.6098 285.682 28.788 285.116 28.5368L284.129 28.0982C282.734 27.4786 281.625 26.3335 281.031 24.8995L280.682 24.059C280.439 23.4732 279.629 23.4732 279.386 24.059L279.038 24.8995C278.443 26.3335 277.334 27.4786 275.939 28.0982L274.952 28.5368C274.387 28.788 274.387 29.6098 274.952 29.861L275.998 30.3256C277.358 30.9297 278.447 32.034 279.052 33.4208L279.392 34.1986C279.64 34.768 280.428 34.768 280.677 34.1986Z" fill="white"/>
</svg>
